<svg width="100%" viewBox="0 0 680 820" role="img" style="max-width: 680px; display: block; margin-inline: auto;">
  <title>Showcase setup options for ng-neo-brutalism library</title>
  <desc>Comparison of three showcase approaches: Storybook, Analog.js docs site, and dedicated demo app, with a recommended workspace structure</desc>
  <defs>
    <marker id="arrow" viewBox="0 0 10 10" refX="8" refY="5" markerWidth="6" markerHeight="6" orient="auto-start-reverse">
      <path d="M2 1L8 5L2 9" fill="none" stroke="context-stroke" stroke-width="1.5" stroke-linecap="round" stroke-linejoin="round"></path>
    </marker>
  <mask id="imagine-text-gaps-r86v2h" maskUnits="userSpaceOnUse"><rect x="0" y="0" width="680" height="820" fill="white"></rect><rect x="36" y="22" width="222.5" height="21.5" fill="black" rx="2"></rect><rect x="92.32421875" y="62" width="77.3515625" height="21.5" fill="black" rx="2"></rect><rect x="61.61328125" y="82" width="138.7734375" height="19" fill="black" rx="2"></rect><rect x="48" y="104" width="156.5390625" height="19" fill="black" rx="2"></rect><rect x="48" y="122" width="129.0234375" height="19" fill="black" rx="2"></rect><rect x="48" y="140" width="150.234375" height="19" fill="black" rx="2"></rect><rect x="48" y="158" width="146.171875" height="19" fill="black" rx="2"></rect><rect x="274.328125" y="62" width="131.34375" height="21.5" fill="black" rx="2"></rect><rect x="269.9921875" y="82" width="140.015625" height="19" fill="black" rx="2"></rect><rect x="257" y="104" width="140.53125" height="19" fill="black" rx="2"></rect><rect x="257" y="122" width="116.921875" height="19" fill="black" rx="2"></rect><rect x="257" y="140" width="123.4609375" height="19" fill="black" rx="2"></rect><rect x="257" y="158" width="104.578125" height="19" fill="black" rx="2"></rect><rect x="483.61328125" y="62" width="130.7734375" height="21.5" fill="black" rx="2"></rect><rect x="477.51953125" y="82" width="142.9609375" height="19" fill="black" rx="2"></rect><rect x="466" y="104" width="133.8125" height="19" fill="black" rx="2"></rect><rect x="466" y="122" width="116.984375" height="19" fill="black" rx="2"></rect><rect x="466" y="140" width="127" height="19" fill="black" rx="2"></rect><rect x="466" y="158" width="66.8515625" height="19" fill="black" rx="2"></rect><rect x="250.46875" y="193" width="179.0625" height="19" fill="black" rx="2"></rect><rect x="36" y="240" width="272.65625" height="21.5" fill="black" rx="2"></rect><rect x="56" y="278" width="205.734375" height="21.5" fill="black" rx="2"></rect><rect x="76" y="312" width="45.359375" height="21.5" fill="black" rx="2"></rect><rect x="138.04296875" y="346" width="117.9140625" height="21.5" fill="black" rx="2"></rect><rect x="114.8125" y="366" width="164.375" height="19" fill="black" rx="2"></rect><rect x="174.25" y="414" width="45.5" height="21.5" fill="black" rx="2"></rect><rect x="116.2109375" y="434" width="161.578125" height="19" fill="black" rx="2"></rect><rect x="135.09765625" y="476" width="123.8046875" height="19" fill="black" rx="2"></rect><rect x="371" y="312" width="36.078125" height="21.5" fill="black" rx="2"></rect><rect x="378.28125" y="346" width="217.4375" height="21.5" fill="black" rx="2"></rect><rect x="393.421875" y="366" width="187.15625" height="19" fill="black" rx="2"></rect><rect x="460.140625" y="414" width="53.71875" height="21.5" fill="black" rx="2"></rect><rect x="416.12890625" y="434" width="141.7421875" height="19" fill="black" rx="2"></rect><rect x="402.453125" y="476" width="169.09375" height="19" fill="black" rx="2"></rect><rect x="399.2890625" y="526" width="175.421875" height="19" fill="black" rx="2"></rect><rect x="419.203125" y="564" width="135.59375" height="19" fill="black" rx="2"></rect><rect x="123.25390625" y="584" width="147.4921875" height="19" fill="black" rx="2"></rect><rect x="312.4921875" y="628" width="55.015625" height="21.5" fill="black" rx="2"></rect><rect x="114.0390625" y="651" width="171.921875" height="19" fill="black" rx="2"></rect><rect x="412.03125" y="651" width="135.9375" height="19" fill="black" rx="2"></rect><rect x="193.8984375" y="736" width="292.203125" height="19" fill="black" rx="2"></rect><rect x="219.109375" y="756" width="241.78125" height="19" fill="black" rx="2"></rect></mask></defs>

  <!-- Section heading: Approach comparison -->
  <text class="th" x="40" y="38">Showcase approach comparison</text>

  <!-- Storybook -->
  <g class="node c-purple" onclick="sendPrompt('Tell me more about setting up Storybook for an Angular component library')">
    <rect x="40" y="54" width="182" height="130" rx="8" stroke-width="0.5"></rect>
    <text class="th" x="131" y="78" text-anchor="middle">Storybook</text>
    <text class="ts" x="131" y="96" text-anchor="middle">Dev-focused workshop</text>
    <text class="ts" x="52" y="118">✓ Isolated component dev</text>
    <text class="ts" x="52" y="136">✓ Built-in a11y checks</text>
    <text class="ts" x="52" y="154">✗ Not a public-facing site</text>
    <text class="ts" x="52" y="172">✗ Heavy setup overhead</text>
  </g>

  <!-- Analog.js docs site -->
  <g class="node c-teal" onclick="sendPrompt('Tell me more about using Analog.js to build a documentation showcase site for Angular libraries')">
    <rect x="249" y="54" width="182" height="130" rx="8" stroke-width="0.5"></rect>
    <text class="th" x="340" y="78" text-anchor="middle">Analog.js docs site</text>
    <text class="ts" x="340" y="96" text-anchor="middle">Public-facing showcase</text>
    <text class="ts" x="261" y="118">✓ SSG/SSR = great SEO</text>
    <text class="ts" x="261" y="136">✓ MDX / .agx pages</text>
    <text class="ts" x="261" y="154">✓ File-based routing</text>
    <text class="ts" x="261" y="172">✓ Angular-native</text>
  </g>

  <!-- Demo Angular app -->
  <g class="node c-coral" onclick="sendPrompt('Tell me more about adding a demo Angular app inside an Nx workspace for component library showcasing')">
    <rect x="458" y="54" width="182" height="130" rx="8" stroke-width="0.5"></rect>
    <text class="th" x="549" y="78" text-anchor="middle">Demo Angular app</text>
    <text class="ts" x="549" y="96" text-anchor="middle">In-workspace showcase</text>
    <text class="ts" x="470" y="118">✓ Full Angular context</text>
    <text class="ts" x="470" y="136">✓ Quick to scaffold</text>
    <text class="ts" x="470" y="154">✗ Manual docs effort</text>
    <text class="ts" x="470" y="172">✗ No MDX</text>
  </g>

  <!-- Recommendation badge -->
  <rect x="249" y="192" width="182" height="22" rx="6" fill="#1D9E75" stroke="none"></rect>
  <text class="ts" x="340" y="207" text-anchor="middle" fill="#E1F5EE">Recommended for your library</text>

  <!-- Divider -->
  <line x1="40" y1="228" x2="640" y2="228" stroke="var(--t)" stroke-width="0.5" opacity="0.2"></line>

  <!-- Recommended Nx workspace structure -->
  <text class="th" x="40" y="256">Recommended Nx workspace structure</text>

  <!-- Root container -->
  <g class="c-gray">
    <rect x="40" y="270" width="600" height="460" rx="12" stroke-width="0.5"></rect>
    <text class="th" x="60" y="294">ng-brutalism/</text>
  </g>

  <!-- apps/ container -->
  <g class="c-teal">
    <rect x="60" y="306" width="275" height="200" rx="8" stroke-width="0.5"></rect>
    <text class="th" x="80" y="328">apps/</text>
  </g>

  <!-- docs app -->
  <g class="node c-teal" onclick="sendPrompt('How do I set up an Analog.js documentation site inside an Nx workspace?')">
    <rect x="80" y="340" width="235" height="56" rx="6" stroke-width="0.5"></rect>
    <text class="th" x="197" y="362" text-anchor="middle">docs  ← Analog.js</text>
    <text class="ts" x="197" y="380" text-anchor="middle">Showcase + docs site (SSG)</text>
  </g>

  <!-- demo app -->
  <g class="node c-coral" onclick="sendPrompt('How do I set up a demo app in an Nx workspace alongside an Angular library?')">
    <rect x="80" y="408" width="235" height="56" rx="6" stroke-width="0.5"></rect>
    <text class="th" x="197" y="430" text-anchor="middle">demo</text>
    <text class="ts" x="197" y="448" text-anchor="middle">Dev sandbox app (Angular)</text>
  </g>

  <!-- storybook app -->
  <g class="node c-purple" onclick="sendPrompt('How do I set up Storybook inside an Nx workspace for an Angular library?')">
    <rect x="80" y="476" width="235" height="20" rx="6" stroke-width="0.5"></rect>
    <text class="ts" x="197" y="490" text-anchor="middle">storybook (optional)</text>
  </g>

  <!-- libs/ container -->
  <g class="c-blue">
    <rect x="355" y="306" width="265" height="200" rx="8" stroke-width="0.5"></rect>
    <text class="th" x="375" y="328">libs/</text>
  </g>

  <!-- core lib -->
  <g class="node c-blue" onclick="sendPrompt('What should go in the core library of an Angular UI component library workspace?')">
    <rect x="375" y="340" width="225" height="56" rx="6" stroke-width="0.5"></rect>
    <text class="th" x="487" y="362" text-anchor="middle">ng-neo-brutalism  ← publishable</text>
    <text class="ts" x="487" y="380" text-anchor="middle">Components, directives, tokens</text>
  </g>

  <!-- tokens/theme lib -->
  <g class="node c-blue" onclick="sendPrompt('Should I have a separate tokens or theming library in my Angular UI component workspace?')">
    <rect x="375" y="408" width="225" height="56" rx="6" stroke-width="0.5"></rect>
    <text class="th" x="487" y="430" text-anchor="middle">tokens</text>
    <text class="ts" x="487" y="448" text-anchor="middle">CSS vars, design tokens</text>
  </g>

  <!-- testing note -->
  <g class="node c-blue" onclick="sendPrompt('How do I set up unit tests and e2e tests for an Angular component library with Nx?')">
    <rect x="375" y="476" width="225" height="20" rx="6" stroke-width="0.5"></rect>
    <text class="ts" x="487" y="490" text-anchor="middle">e2e/ (Playwright or Cypress)</text>
  </g>

  <!-- Divider -->
  <line x1="60" y1="510" x2="620" y2="510" stroke="var(--t)" stroke-width="0.5" opacity="0.15"></line>

  <!-- Flow row: library → apps -->
  <text class="ts" x="487" y="540" text-anchor="middle">@my-scope/ng-neo-brutalism</text>
  <line x1="487" y1="546" x2="487" y2="562" class="arr" stroke="var(--t)" opacity="0.5" marker-end="url(#arrow)"></line>
  <text class="ts" x="487" y="578" text-anchor="middle">imported by both apps</text>

  <line x1="420" y1="578" x2="310" y2="584" class="arr" stroke="var(--t)" opacity="0.4" marker-end="url(#arrow)" mask="url(#imagine-text-gaps-r86v2h)"></line>
  <text class="ts" x="197" y="598" text-anchor="middle">renders live components</text>

  <!-- Deploy row -->
  <g class="c-green">
    <rect x="60" y="620" width="560" height="70" rx="8" stroke-width="0.5"></rect>
    <text class="th" x="340" y="644" text-anchor="middle">Deploy</text>
    <text class="ts" x="200" y="665" text-anchor="middle">docs → Vercel / GitHub Pages</text>
    <text class="ts" x="480" y="665" text-anchor="middle">npm publish → registry</text>
    <line x1="340" y1="656" x2="340" y2="678" stroke="var(--t)" stroke-width="0.5" opacity="0.3"></line>
  </g>

  <!-- CI note -->
  <text class="ts" x="340" y="750" text-anchor="middle">nx affected: build/test only changed libs/apps in CI</text>
  <text class="ts" x="340" y="770" text-anchor="middle">pnpm workspaces · vitest · eslint · prettier</text>
</svg>